<svg xmlns="http://www.w3.org/2000/svg" style="display: none;">
<symbol id="age-icon" viewBox="0 0 36 36" fill="none">
<path d="M27 13.4999C27.4142 13.4999 27.75 13.1641 27.75 12.7499C27.75 12.3357 27.4142 11.9999 27 11.9999V12.7499V13.4999ZM21 11.9999C20.5858 11.9999 20.25 12.3357 20.25 12.7499C20.25 13.1641 20.5858 13.4999 21 13.4999V12.7499V11.9999ZM27 22.4999C27.4142 22.4999 27.75 22.1641 27.75 21.7499C27.75 21.3357 27.4142 20.9999 27 20.9999V21.7499V22.4999ZM21 20.9999C20.5858 20.9999 20.25 21.3357 20.25 21.7499C20.25 22.1641 20.5858 22.4999 21 22.4999V21.7499V20.9999ZM27 26.9999C27.4142 26.9999 27.75 26.6641 27.75 26.2499C27.75 25.8357 27.4142 25.4999 27 25.4999V26.2499V26.9999ZM21 25.4999C20.5858 25.4999 20.25 25.8357 20.25 26.2499C20.25 26.6641 20.5858 26.9999 21 26.9999V26.2499V25.4999ZM15 13.5C15.4142 13.5 15.75 13.1642 15.75 12.75C15.75 12.3357 15.4142 12 15 12V12.75V13.5ZM9 12C8.58579 12 8.25 12.3357 8.25 12.75C8.25 13.1642 8.58579 13.5 9 13.5V12.75V12ZM12.75 9.74993C12.75 9.33572 12.4142 8.99993 12 8.99993C11.5858 8.99993 11.25 9.33571 11.25 9.74993H12H12.75ZM11.25 15.7499C11.25 16.1641 11.5858 16.4999 12 16.4999C12.4142 16.4999 12.75 16.1641 12.75 15.7499H12H11.25ZM14.7803 22.2803C15.0732 21.9874 15.0732 21.5125 14.7803 21.2197C14.4874 20.9268 14.0126 20.9268 13.7197 21.2197L14.25 21.75L14.7803 22.2803ZM9.21969 25.7196C8.9268 26.0125 8.9268 26.4874 9.21969 26.7803C9.51258 27.0732 9.98746 27.0732 10.2803 26.7803L9.75002 26.25L9.21969 25.7196ZM10.2803 21.2196C9.98744 20.9267 9.51256 20.9267 9.21967 21.2196C8.92678 21.5125 8.92678 21.9874 9.21967 22.2803L9.75 21.75L10.2803 21.2196ZM13.7197 26.7803C14.0125 27.0732 14.4874 27.0732 14.7803 26.7803C15.0732 26.4874 15.0732 26.0125 14.7803 25.7196L14.25 26.2499L13.7197 26.7803ZM18 33V32.25C14.4433 32.25 11.8512 32.2484 9.8704 31.9821C7.91121 31.7187 6.6628 31.2087 5.72703 30.273L5.1967 30.8033L4.66637 31.3336C5.9273 32.5946 7.545 33.183 9.67053 33.4687C11.7745 33.7516 14.4857 33.75 18 33.75V33ZM3 18H2.25C2.25 21.5143 2.24841 24.2255 2.53128 26.3295C2.81704 28.455 3.40544 30.0727 4.66637 31.3336L5.1967 30.8033L5.72703 30.273C4.79126 29.3372 4.28131 28.0888 4.0179 26.1296C3.75159 24.1488 3.75 21.5567 3.75 18H3ZM33 18H32.25C32.25 21.5567 32.2484 24.1488 31.9821 26.1296C31.7187 28.0888 31.2087 29.3372 30.273 30.273L30.8033 30.8033L31.3336 31.3336C32.5946 30.0727 33.183 28.455 33.4687 26.3295C33.7516 24.2255 33.75 21.5143 33.75 18H33ZM18 33V33.75C21.5143 33.75 24.2255 33.7516 26.3295 33.4687C28.455 33.183 30.0727 32.5946 31.3336 31.3336L30.8033 30.8033L30.273 30.273C29.3372 31.2087 28.0888 31.7187 26.1296 31.9821C24.1488 32.2484 21.5567 32.25 18 32.25V33ZM18 3V3.75C21.5567 3.75 24.1488 3.75159 26.1296 4.0179C28.0888 4.28131 29.3372 4.79126 30.273 5.72703L30.8033 5.1967L31.3336 4.66637C30.0727 3.40544 28.455 2.81704 26.3295 2.53128C24.2255 2.24841 21.5143 2.25 18 2.25V3ZM33 18H33.75C33.75 14.4857 33.7516 11.7745 33.4687 9.67053C33.183 7.545 32.5946 5.9273 31.3336 4.66637L30.8033 5.1967L30.273 5.72703C31.2087 6.6628 31.7187 7.91121 31.9821 9.8704C32.2484 11.8512 32.25 14.4433 32.25 18H33ZM18 3V2.25C14.4857 2.25 11.7745 2.24841 9.67053 2.53128C7.545 2.81704 5.9273 3.40544 4.66637 4.66637L5.1967 5.1967L5.72703 5.72703C6.6628 4.79126 7.91121 4.28131 9.8704 4.0179C11.8512 3.75159 14.4433 3.75 18 3.75V3ZM3 18H3.75C3.75 14.4433 3.75159 11.8512 4.0179 9.8704C4.28131 7.91121 4.79126 6.6628 5.72703 5.72703L5.1967 5.1967L4.66637 4.66637C3.40544 5.9273 2.81704 7.545 2.53128 9.67053C2.24841 11.7745 2.25 14.4857 2.25 18H3ZM27 12.7499V11.9999H21V12.7499V13.4999H27V12.7499ZM27 21.7499V20.9999H21V21.7499V22.4999H27V21.7499ZM27 26.2499V25.4999H21V26.2499V26.9999H27V26.2499ZM15 12.75V12H12V12.75V13.5H15V12.75ZM12 12.75V12H9V12.75V13.5L12 13.5V12.75ZM12 9.74993H11.25L11.25 12.75H12L12.75 12.75L12.75 9.74993H12ZM12 12.75H11.25V15.7499H12H12.75V12.75H12ZM14.25 21.75L13.7197 21.2197L11.4697 23.4696L12 24L12.5303 24.5303L14.7803 22.2803L14.25 21.75ZM12 24L11.4697 23.4696L9.21969 25.7196L9.75002 26.25L10.2803 26.7803L12.5303 24.5303L12 24ZM9.75 21.75L9.21967 22.2803L11.4697 24.5303L12 24L12.5303 23.4696L10.2803 21.2196L9.75 21.75ZM12 24L11.4697 24.5303L13.7197 26.7803L14.25 26.2499L14.7803 25.7196L12.5303 23.4696L12 24Z" fill="black"/>
</symbol>
</svg>