<svg xmlns="http://www.w3.org/2000/svg" style="display: none;">
<symbol id="employment-icon" viewBox="0 0 36 36" fill="none">
<path d="M28.5 18.75C28.9142 18.75 29.25 18.4142 29.25 18C29.25 17.5858 28.9142 17.25 28.5 17.25V18V18.75ZM22.5 17.25C22.0858 17.25 21.75 17.5858 21.75 18C21.75 18.4142 22.0858 18.75 22.5 18.75V18V17.25ZM28.5 14.25C28.9142 14.25 29.25 13.9142 29.25 13.5C29.25 13.0858 28.9142 12.75 28.5 12.75V13.5V14.25ZM21 12.75C20.5858 12.75 20.25 13.0858 20.25 13.5C20.25 13.9142 20.5858 14.25 21 14.25V13.5V12.75ZM28.5 23.25C28.9142 23.25 29.25 22.9142 29.25 22.5C29.25 22.0858 28.9142 21.75 28.5 21.75V22.5V23.25ZM24 21.75C23.5858 21.75 23.25 22.0858 23.25 22.5C23.25 22.9142 23.5858 23.25 24 23.25V22.5V21.75ZM16.5 13.5H15.75C15.75 14.7426 14.7426 15.75 13.5 15.75V16.5V17.25C15.5711 17.25 17.25 15.5711 17.25 13.5H16.5ZM13.5 16.5V15.75C12.2574 15.75 11.25 14.7426 11.25 13.5H10.5H9.75C9.75 15.5711 11.4289 17.25 13.5 17.25V16.5ZM10.5 13.5H11.25C11.25 12.2574 12.2574 11.25 13.5 11.25V10.5V9.75C11.4289 9.75 9.75 11.4289 9.75 13.5H10.5ZM13.5 10.5V11.25C14.7426 11.25 15.75 12.2574 15.75 13.5H16.5H17.25C17.25 11.4289 15.5711 9.75 13.5 9.75V10.5ZM19.5 22.5H18.75C18.75 23.3806 18.7115 23.7233 18.3102 24.0138C18.0632 24.1926 17.6244 24.3842 16.8359 24.5261C16.0532 24.6669 14.9772 24.75 13.5 24.75V25.5V26.25C15.0228 26.25 16.1968 26.1652 17.1016 26.0024C18.0006 25.8406 18.6868 25.5929 19.1898 25.2289C20.2885 24.4335 20.25 23.2762 20.25 22.5H19.5ZM13.5 25.5V24.75C12.0228 24.75 10.9468 24.6669 10.1641 24.5261C9.3756 24.3842 8.93682 24.1926 8.68977 24.0138C8.28849 23.7233 8.25 23.3806 8.25 22.5H7.5H6.75C6.75 23.2762 6.71151 24.4335 7.81023 25.2289C8.31318 25.5929 8.9994 25.8406 9.89844 26.0024C10.8032 26.1652 11.9772 26.25 13.5 26.25V25.5ZM7.5 22.5H8.25C8.25 22.1087 8.58671 21.5525 9.59277 21.0495C10.554 20.5689 11.9343 20.25 13.5 20.25V19.5V18.75C11.752 18.75 10.1323 19.1027 8.92195 19.7079C7.75643 20.2906 6.75 21.2345 6.75 22.5H7.5ZM13.5 19.5V20.25C15.0657 20.25 16.446 20.5689 17.4072 21.0495C18.4133 21.5525 18.75 22.1087 18.75 22.5H19.5H20.25C20.25 21.2345 19.2436 20.2906 18.0781 19.7079C16.8677 19.1027 15.248 18.75 13.5 18.75V19.5ZM15 6V6.75H21V6V5.25H15V6ZM21 30V29.25H15V30V30.75H21V30ZM15 30V29.25C12.1504 29.25 10.0886 29.2484 8.5163 29.037C6.96559 28.8285 6.00379 28.4284 5.28769 27.7123L4.75736 28.2426L4.22703 28.773C5.26829 29.8142 6.59938 30.2928 8.31643 30.5236C10.0119 30.7516 12.1928 30.75 15 30.75V30ZM3 18H2.25C2.25 20.8072 2.24841 22.9881 2.47636 24.6836C2.70721 26.4006 3.18577 27.7317 4.22703 28.773L4.75736 28.2426L5.28769 27.7123C4.57159 26.9962 4.17147 26.0344 3.96298 24.4837C3.75159 22.9114 3.75 20.8496 3.75 18H3ZM33 18H32.25C32.25 20.8496 32.2484 22.9114 32.037 24.4837C31.8285 26.0344 31.4284 26.9962 30.7123 27.7123L31.2426 28.2426L31.773 28.773C32.8142 27.7317 33.2928 26.4006 33.5236 24.6836C33.7516 22.9881 33.75 20.8072 33.75 18H33ZM21 30V30.75C23.8072 30.75 25.9881 30.7516 27.6836 30.5236C29.4006 30.2928 30.7317 29.8142 31.773 28.773L31.2426 28.2426L30.7123 27.7123C29.9962 28.4284 29.0344 28.8285 27.4837 29.037C25.9114 29.2484 23.8496 29.25 21 29.25V30ZM21 6V6.75C23.8496 6.75 25.9114 6.75159 27.4837 6.96298C29.0344 7.17147 29.9962 7.57159 30.7123 8.28769L31.2426 7.75736L31.773 7.22703C30.7317 6.18577 29.4006 5.70721 27.6836 5.47636C25.9881 5.24841 23.8072 5.25 21 5.25V6ZM33 18H33.75C33.75 15.1928 33.7516 13.0119 33.5236 11.3164C33.2928 9.59938 32.8142 8.26829 31.773 7.22703L31.2426 7.75736L30.7123 8.28769C31.4284 9.00379 31.8285 9.96559 32.037 11.5163C32.2484 13.0886 32.25 15.1504 32.25 18H33ZM15 6V5.25C12.1928 5.25 10.0119 5.24841 8.31643 5.47636C6.59938 5.70721 5.26829 6.18577 4.22703 7.22703L4.75736 7.75736L5.28769 8.28769C6.00379 7.57159 6.96559 7.17147 8.5163 6.96298C10.0886 6.75159 12.1504 6.75 15 6.75V6ZM3 18H3.75C3.75 15.1504 3.75159 13.0886 3.96298 11.5163C4.17147 9.96559 4.57159 9.00379 5.28769 8.28769L4.75736 7.75736L4.22703 7.22703C3.18577 8.26829 2.70721 9.59938 2.47636 11.3164C2.24841 13.0119 2.25 15.1928 2.25 18H3ZM28.5 18V17.25H22.5V18V18.75H28.5V18ZM28.5 13.5V12.75H21V13.5V14.25H28.5V13.5ZM28.5 22.5V21.75H24V22.5V23.25H28.5V22.5Z" fill="black"/>
</symbol>
</svg>