<svg xmlns="http://www.w3.org/2000/svg" style="display: none;">
<symbol id="documents-icon" viewBox="0 0 36 36" fill="none">
<path d="M6.75 7.50003C6.75 7.08582 6.41421 6.75003 6 6.75003C5.58579 6.75003 5.25 7.08582 5.25 7.50003H6H6.75ZM27 9.00003V9.75003H27.75V9.00003H27ZM23.5757 3.48921L23.4697 2.74675L23.5757 3.48921ZM7.37939 5.80297L7.27333 5.06051L7.37939 5.80297ZM12 17.25C11.5858 17.25 11.25 17.5858 11.25 18C11.25 18.4142 11.5858 18.75 12 18.75V18V17.25ZM24 18.75C24.4142 18.75 24.75 18.4142 24.75 18C24.75 17.5858 24.4142 17.25 24 17.25V18V18.75ZM12 22.5C11.5858 22.5 11.25 22.8358 11.25 23.25C11.25 23.6642 11.5858 24 12 24V23.25V22.5ZM20.25 24C20.6642 24 21 23.6642 21 23.25C21 22.8358 20.6642 22.5 20.25 22.5V23.25V24ZM30 13.5H29.25V28.5H30H30.75V13.5H30ZM25.5 33V32.25H10.5V33V33.75H25.5V33ZM6 28.5H6.75V9.00003H6H5.25V28.5H6ZM6 9.00003H6.75V7.50003H6H5.25V9.00003H6ZM6 9.00003V9.75003H25.5V9.00003V8.25003H6V9.00003ZM10.5 33V32.25C8.42893 32.25 6.75 30.5711 6.75 28.5H6H5.25C5.25 31.3995 7.60051 33.75 10.5 33.75V33ZM30 28.5H29.25C29.25 30.5711 27.5711 32.25 25.5 32.25V33V33.75C28.3995 33.75 30.75 31.3995 30.75 28.5H30ZM30 13.5H30.75C30.75 10.6005 28.3995 8.25003 25.5 8.25003V9.00003V9.75003C27.5711 9.75003 29.25 11.429 29.25 13.5H30ZM7.6066 9.00003V9.75003H27V9.00003V8.25003H7.6066V9.00003ZM27 9.00003H27.75V6.45906H27H26.25V9.00003H27ZM23.5757 3.48921L23.4697 2.74675L7.27333 5.06051L7.37939 5.80297L7.48546 6.54544L23.6818 4.23167L23.5757 3.48921ZM7.37939 5.80297L7.27333 5.06051C6.11235 5.22637 5.25 6.22067 5.25 7.39343H6H6.75C6.75 6.96714 7.06346 6.60572 7.48546 6.54544L7.37939 5.80297ZM27 6.45906H27.75C27.75 4.177 25.7288 2.42402 23.4697 2.74675L23.5757 3.48921L23.6818 4.23167C25.0373 4.03803 26.25 5.08982 26.25 6.45906H27ZM7.6066 9.00003V8.25003C7.13351 8.25003 6.75 7.86652 6.75 7.39343H6H5.25C5.25 8.69494 6.30509 9.75003 7.6066 9.75003V9.00003ZM12 18V18.75H24V18V17.25H12V18ZM12 23.25V24H20.25V23.25V22.5H12V23.25Z" fill="black"/>
</symbol>
</svg>