<svg width="17" height="21" viewBox="0 0 17 21" fill="none" xmlns="http://www.w3.org/2000/svg">
<path d="M0.187125 1.90411C0.130218 1.93701 0.0829699 1.9843 0.0501241 2.04124C0.0172782 2.09818 -8.51665e-06 2.16275 3.14772e-09 2.22849V3.54849C3.14772e-09 5.94024 1.78912 7.94649 4.16175 8.21499C4.36725 8.23974 4.55325 8.09011 4.5765 7.88424C4.58756 7.78543 4.55894 7.68628 4.49691 7.60857C4.43489 7.53087 4.34455 7.48098 4.24575 7.46986C2.253 7.24374 0.75 5.55849 0.75 3.54849V2.84311C1.57838 3.22486 2.4375 3.44161 3.27375 3.65274C5.12325 3.95349 6.5325 5.02599 6.67388 6.99511C5.68163 6.02499 4.52887 5.28774 3.23813 4.81561C3.14474 4.7814 3.04158 4.78569 2.95135 4.82753C2.86112 4.86937 2.79121 4.94535 2.757 5.03874C2.72279 5.13213 2.72707 5.23528 2.76892 5.32551C2.81076 5.41574 2.88674 5.48565 2.98013 5.51986C5.29388 6.38911 7.57125 8.26786 7.86225 10.876H4.5C3.87975 10.876 3.375 11.3807 3.375 12.001V12.8447C3.375 12.9767 3.402 13.102 3.444 13.2197H3.1875C2.56725 13.2197 2.0625 13.7245 2.0625 14.3447V15.1885C2.0625 15.8087 2.56725 16.3135 3.1875 16.3135H3.6315C3.58708 16.4336 3.56374 16.5604 3.5625 16.6885C3.576 17.1449 3.465 17.9391 3.855 18.2822C3.462 18.6456 3.576 19.396 3.5625 19.876C3.5625 20.4962 4.06725 21.001 4.6875 21.001H12.1875C12.8077 21.001 13.3125 20.4962 13.3125 19.876C13.3001 19.3847 13.4126 18.649 13.02 18.2822C13.4078 17.9327 13.3016 17.1584 13.3125 16.6885C13.3125 16.0682 12.8077 15.5635 12.1875 15.5635H11.7435C11.7855 15.4457 11.8125 15.3205 11.8125 15.1885C11.8013 14.9016 11.8575 14.2277 11.7435 13.9697C12.4598 14.0507 13.119 13.6007 13.125 12.8447V12.001C13.125 11.3807 12.6202 10.876 12 10.876H10.125C9.6315 10.8835 9.633 11.6185 10.125 11.626H12C12.2066 11.626 12.375 11.7944 12.375 12.001V12.8447C12.375 13.0514 12.2066 13.2197 12 13.2197C11.2151 13.2164 5.42887 13.222 4.5 13.2197C4.29338 13.2197 4.125 13.0514 4.125 12.8447V12.001C4.125 11.7944 4.29338 11.626 4.5 11.626H8.25C8.34946 11.626 8.44484 11.5865 8.51517 11.5162C8.58549 11.4458 8.625 11.3504 8.625 11.251V9.69474C8.53425 7.13724 10.4441 5.15986 12.5419 4.09224C12.8593 3.9302 13.1861 3.78732 13.5206 3.66436C13.6126 3.62908 13.6871 3.55898 13.7278 3.46924C13.7686 3.37951 13.7723 3.27733 13.7383 3.18483C13.7043 3.09233 13.6353 3.01693 13.5461 2.97495C13.4569 2.93296 13.3548 2.92777 13.2619 2.96049C12.9019 3.09249 12.5449 3.24886 12.201 3.42436C11.3385 3.86386 10.5457 4.44061 9.82537 5.14299C9.87375 4.32774 10.2128 3.52674 10.7858 2.93049C11.4255 2.21724 12.3307 2.00911 13.2094 1.80286C14.0512 1.59174 14.916 1.37536 15.75 0.990611V1.69599C15.75 3.70599 14.247 5.39161 12.2543 5.61736C12.2046 5.62194 12.1563 5.63639 12.1123 5.65985C12.0683 5.68332 12.0294 5.71533 11.9979 5.75402C11.9664 5.7927 11.9429 5.83729 11.9289 5.88515C11.9148 5.93302 11.9104 5.98321 11.916 6.03279C11.9216 6.08236 11.937 6.13032 11.9614 6.17386C11.9858 6.2174 12.0186 6.25564 12.0579 6.28634C12.0972 6.31705 12.1422 6.33959 12.1904 6.35267C12.2385 6.36574 12.2888 6.36908 12.3383 6.36249C14.7113 6.09399 16.5 4.08774 16.5 1.69599V0.375986C16.5075 0.098486 16.1768 -0.097264 15.9382 0.050861C14.7285 0.748361 13.3444 0.963236 12.0026 1.34274C10.0785 1.85911 8.80875 3.97749 9.11737 5.92299C8.496 6.75174 8.0955 7.65811 7.953 8.69424C7.78878 8.37399 7.59785 8.06816 7.38225 7.77999C7.569 6.50499 7.15538 5.19999 6.24938 4.26136C5.526 3.44949 4.47337 3.15549 3.45712 2.92524C2.4345 2.66761 1.46888 2.42386 0.56175 1.90336C0.504722 1.87063 0.44009 1.85347 0.374337 1.8536C0.308584 1.85374 0.244022 1.87115 0.187125 1.90411ZM12.1875 16.3135C12.3941 16.3135 12.5625 16.4819 12.5625 16.6885V17.5322C12.5625 17.7389 12.3941 17.9072 12.1875 17.9072H7.125C6.63263 17.9155 6.63188 18.649 7.125 18.6572H12.1875C12.3941 18.6572 12.5625 18.8256 12.5625 19.0322V19.876C12.5625 20.0826 12.3941 20.251 12.1875 20.251H4.6875C4.48088 20.251 4.3125 20.0826 4.3125 19.876V19.0322C4.3125 18.8256 4.48088 18.6572 4.6875 18.6572H5.25C5.74425 18.6482 5.74162 17.9155 5.25 17.9072H4.6875C4.48088 17.9072 4.3125 17.7389 4.3125 17.5322V16.6885C4.3125 16.4819 4.48088 16.3135 4.6875 16.3135H12.1875ZM10.6875 13.9697C10.8941 13.9697 11.0625 14.1381 11.0625 14.3447V15.1885C11.0625 15.3951 10.8941 15.5635 10.6875 15.5635H3.1875C2.98088 15.5635 2.8125 15.3951 2.8125 15.1885V14.3447C2.8125 14.1381 2.98088 13.9697 3.1875 13.9697H10.6875Z" fill="black"/>
</svg>