<svg width="24" height="24" viewBox="0 0 24 24" fill="none" xmlns="http://www.w3.org/2000/svg">
<path d="M6.16208 8.38697C6.11949 8.38771 6.07717 8.38006 6.03754 8.36445C5.9979 8.34884 5.96173 8.32558 5.93109 8.29599C5.8692 8.23623 5.83359 8.15434 5.83208 8.06832C5.83058 7.9823 5.8633 7.89921 5.92306 7.83733C5.98282 7.77544 6.06471 7.73983 6.15073 7.73832C7.7421 7.72054 9.33003 7.58613 10.9018 7.33616C10.9297 7.33033 10.9583 7.32837 10.9867 7.33032C11.3807 7.35115 11.7629 7.47168 12.0975 7.68059C12.1528 7.72074 12.194 7.77731 12.2152 7.84223C12.2364 7.90715 12.2366 7.97712 12.2157 8.04215C12.1948 8.10718 12.1539 8.16396 12.0989 8.20439C12.0438 8.24482 11.9774 8.26683 11.9091 8.26729C11.8327 8.26728 11.7587 8.24106 11.6993 8.19302C11.4806 8.06771 11.2358 7.99519 10.9841 7.98124C9.39137 8.23148 7.78269 8.36708 6.17051 8.38697H6.16208Z" fill="black"/>
<path d="M18.028 16.1025C17.7513 16.1029 17.4816 16.0155 17.2578 15.8528L17.188 15.8045C17.1743 15.7947 17.1614 15.7839 17.1494 15.7721L13.3318 13.0228C13.2962 12.9984 13.2657 12.9672 13.2423 12.931C13.2189 12.8948 13.2029 12.8542 13.1953 12.8117C13.1878 12.7692 13.1888 12.7257 13.1983 12.6836C13.2077 12.6415 13.2255 12.6017 13.2506 12.5666C13.2756 12.5314 13.3075 12.5017 13.3442 12.479C13.3809 12.4563 13.4218 12.4412 13.4644 12.4345C13.507 12.4278 13.5506 12.4297 13.5924 12.44C13.6343 12.4504 13.6737 12.469 13.7084 12.4948L13.9678 12.6796L17.5402 15.2557C17.5509 15.2634 17.5611 15.2717 17.5707 15.2807L17.6327 15.3238C17.7734 15.4247 17.9474 15.4677 18.1188 15.4439C18.2903 15.4202 18.4461 15.3316 18.5541 15.1964C18.6203 15.1127 18.6655 15.0144 18.6858 14.9096C18.7061 14.8049 18.7008 14.6967 18.6705 14.5944C18.6341 14.4655 18.5588 14.351 18.4548 14.2665L13.3487 10.1064C11.3933 11.1443 10.0081 10.6104 9.34684 10.1878C9.23755 10.1167 9.14882 10.0182 9.08949 9.90205C9.03017 9.78593 9.00231 9.65629 9.00871 9.52605C9.01511 9.39581 9.05554 9.26952 9.12596 9.15978C9.19639 9.05004 9.29435 8.96067 9.41008 8.90059L12.3329 7.34838C12.5195 7.25078 12.7235 7.19108 12.9332 7.17271C13.143 7.15434 13.3543 7.17767 13.5549 7.24135L15.2839 7.80243C15.7929 7.96985 16.345 7.94995 16.8407 7.74632L17.5938 7.43789C17.6332 7.42173 17.6754 7.41349 17.718 7.41364C17.7606 7.41379 17.8028 7.42233 17.8421 7.43878C17.8814 7.45522 17.917 7.47924 17.9471 7.50948C17.9771 7.53971 18.0008 7.57556 18.017 7.61497C18.0332 7.65439 18.0414 7.69661 18.0413 7.73921C18.0411 7.78181 18.0326 7.82397 18.0161 7.86327C17.9997 7.90257 17.9757 7.93825 17.9454 7.96827C17.9152 7.99828 17.8793 8.02205 17.8399 8.03822L17.0875 8.34632C16.4493 8.60904 15.7381 8.63481 15.0825 8.41897L13.3552 7.85822C13.2369 7.82105 13.1124 7.80765 12.9888 7.81878C12.8653 7.82991 12.7452 7.86536 12.6355 7.92308L9.71203 9.47562C9.69575 9.48329 9.68192 9.49532 9.67208 9.51038C9.66223 9.52544 9.65675 9.54293 9.65625 9.56092C9.6549 9.57719 9.65807 9.59351 9.66539 9.6081C9.67271 9.62269 9.68391 9.63498 9.69776 9.64362C10.3788 10.0789 11.548 10.398 13.2219 9.43638C13.2788 9.40367 13.3443 9.38901 13.4097 9.39434C13.4752 9.39967 13.5375 9.42473 13.5884 9.46622L18.8619 13.7635C19.0687 13.9303 19.2191 14.1568 19.2926 14.4122C19.3508 14.6131 19.3606 14.825 19.3211 15.0305C19.2817 15.236 19.1941 15.4292 19.0655 15.5943C18.9431 15.7528 18.7858 15.8811 18.606 15.9692C18.4261 16.0573 18.2283 16.103 18.028 16.1025Z" fill="black"/>
<path d="M16.6825 17.6061C16.4076 17.6064 16.1395 17.521 15.9154 17.3619L12.4095 14.8743C12.341 14.8239 12.295 14.7486 12.2815 14.6647C12.2679 14.5807 12.2879 14.4948 12.3371 14.4254C12.3863 14.3561 12.4608 14.3088 12.5446 14.2938C12.6283 14.2788 12.7145 14.2973 12.7847 14.3453L16.2907 16.8326C16.4378 16.9287 16.6163 16.9642 16.789 16.9317C16.9616 16.8993 17.1151 16.8013 17.2172 16.6584C17.3194 16.5155 17.3624 16.3386 17.3372 16.1647C17.312 15.9908 17.2206 15.8334 17.082 15.7253L13.5878 13.207C13.5234 13.1549 13.4813 13.0801 13.4703 12.998C13.4593 12.9159 13.4801 12.8327 13.5284 12.7654C13.5768 12.6982 13.6491 12.652 13.7304 12.6363C13.8118 12.6207 13.896 12.6367 13.9659 12.6812L17.4612 15.1999C17.6887 15.3647 17.8582 15.5972 17.9454 15.8642C18.0326 16.1312 18.033 16.4189 17.9466 16.6862C17.8601 16.9535 17.6913 17.1865 17.4643 17.3518C17.2372 17.5172 16.9637 17.6065 16.6828 17.6068L16.6825 17.6061Z" fill="black"/>
<path d="M15.1678 18.9053C14.9067 18.9052 14.652 18.8252 14.4377 18.676L11.296 16.4998C11.2253 16.4508 11.1769 16.3757 11.1615 16.291C11.1461 16.2064 11.165 16.1191 11.214 16.0483C11.2629 15.9776 11.338 15.9292 11.4227 15.9138C11.5074 15.8984 11.5947 15.9173 11.6654 15.9662L14.8071 18.1425C14.8761 18.1902 14.9539 18.2238 15.0359 18.2415C15.1179 18.2592 15.2025 18.2606 15.2851 18.2455C15.3676 18.2304 15.4463 18.1993 15.5168 18.1538C15.5873 18.1083 15.6481 18.0493 15.6958 17.9803C15.7907 17.8419 15.8276 17.6719 15.7985 17.5066C15.7694 17.3414 15.6766 17.1941 15.5401 17.0965L12.4136 14.8788C12.3781 14.8545 12.3477 14.8233 12.3243 14.7872C12.301 14.751 12.285 14.7106 12.2774 14.6682C12.2699 14.6258 12.2708 14.5823 12.2802 14.5403C12.2896 14.4983 12.3072 14.4585 12.3322 14.4234C12.3571 14.3883 12.3887 14.3585 12.4253 14.3357C12.4619 14.313 12.5026 14.2977 12.5451 14.2909C12.5876 14.284 12.6311 14.2857 12.6729 14.2958C12.7148 14.3059 12.7542 14.3243 12.7889 14.3498L15.9154 16.5675C16.1906 16.7642 16.3776 17.061 16.4364 17.3941C16.4952 17.7272 16.4209 18.0701 16.2296 18.3491C16.1341 18.4885 16.0118 18.6076 15.8699 18.6994C15.728 18.7913 15.5693 18.8541 15.4029 18.8842C15.3254 18.8984 15.2466 18.9054 15.1678 18.9053Z" fill="black"/>
<path d="M13.3155 19.9719C13.0886 19.9708 12.866 19.9101 12.6698 19.7961L10.9259 18.7907C10.852 18.7474 10.7983 18.6766 10.7764 18.5938C10.7545 18.511 10.7663 18.4229 10.8091 18.3487C10.8519 18.2746 10.9223 18.2203 11.005 18.1979C11.0876 18.1755 11.1758 18.1866 11.2502 18.2289L12.9938 19.2344C13.1412 19.3175 13.3153 19.3398 13.4789 19.2964C13.6425 19.2531 13.7827 19.1474 13.8695 19.0021C13.952 18.8628 13.9782 18.6973 13.9428 18.5394C13.9074 18.3814 13.8131 18.2429 13.6791 18.1521L11.451 16.6086C11.416 16.5844 11.3861 16.5535 11.363 16.5176C11.34 16.4818 11.3242 16.4418 11.3166 16.3999C11.309 16.358 11.3097 16.315 11.3187 16.2734C11.3277 16.2318 11.3449 16.1923 11.3691 16.1573C11.3934 16.1223 11.4243 16.0924 11.4601 16.0694C11.4959 16.0463 11.5359 16.0305 11.5778 16.0229C11.6197 16.0153 11.6627 16.016 11.7043 16.025C11.746 16.0341 11.7854 16.0512 11.8204 16.0754L14.0482 17.6186C14.2744 17.7751 14.4446 17.9998 14.5342 18.2599C14.6237 18.52 14.6279 18.8018 14.5461 19.0645C14.4643 19.3271 14.3008 19.5567 14.0794 19.7199C13.858 19.8832 13.5906 19.9714 13.3155 19.9719Z" fill="black"/>
<path d="M9.64561 19.7783C9.38028 19.7787 9.12114 19.6981 8.90281 19.5473C8.68447 19.3966 8.51733 19.1828 8.42371 18.9345C8.33008 18.6863 8.31443 18.4153 8.37885 18.1579C8.44327 17.9005 8.58468 17.6689 8.78421 17.494L9.65048 16.7351C9.77921 16.6221 9.92894 16.5355 10.0911 16.4804C10.2533 16.4252 10.4248 16.4026 10.5957 16.4137C10.7666 16.4248 10.9337 16.4695 11.0874 16.5452C11.2411 16.6208 11.3783 16.7261 11.4913 16.8548C11.6043 16.9835 11.6909 17.1333 11.746 17.2955C11.8011 17.4577 11.8238 17.6291 11.8126 17.8001C11.8015 17.971 11.7568 18.1381 11.681 18.2918C11.6053 18.4454 11.5001 18.5827 11.3713 18.6957L10.5051 19.4562C10.2673 19.6645 9.96174 19.779 9.64561 19.7783ZM10.5106 17.0594C10.3515 17.059 10.1978 17.1167 10.0783 17.2216L9.21167 17.9815C9.14693 18.0383 9.09401 18.1073 9.05594 18.1845C9.01786 18.2618 8.99537 18.3458 8.98976 18.4317C8.98414 18.5176 8.9955 18.6038 9.0232 18.6854C9.0509 18.7669 9.09439 18.8422 9.15118 18.907C9.20798 18.9717 9.27697 19.0246 9.35421 19.0627C9.43146 19.1008 9.51545 19.1232 9.60138 19.1289C9.68732 19.1345 9.77352 19.1231 9.85507 19.0954C9.93661 19.0677 10.0119 19.0242 10.0766 18.9674L10.9429 18.2069C11.0428 18.1189 11.1136 18.0026 11.1458 17.8735C11.178 17.7443 11.1701 17.6084 11.1232 17.4838C11.0763 17.3592 10.9925 17.2519 10.8831 17.1761C10.7736 17.1003 10.6437 17.0596 10.5106 17.0594Z" fill="black"/>
<path d="M7.68058 18.8948C7.65172 18.8948 7.62285 18.8948 7.59399 18.8922C7.42294 18.8815 7.25571 18.837 7.10196 18.7613C6.94821 18.6856 6.81098 18.5802 6.69821 18.4511C6.58365 18.3224 6.49565 18.1722 6.43925 18.0094C6.38285 17.8465 6.35918 17.6741 6.36957 17.5021C6.37997 17.3301 6.42423 17.1618 6.49983 17.0069C6.57543 16.852 6.68087 16.7136 6.8101 16.5996L8.25723 15.3292C8.38596 15.2162 8.53569 15.1296 8.69787 15.0745C8.86006 15.0193 9.03151 14.9966 9.20245 15.0078C9.37339 15.0189 9.54047 15.0635 9.69414 15.1392C9.84782 15.2149 9.98508 15.3201 10.0981 15.4488L9.86361 15.6736L10.1072 15.4596C10.2202 15.5883 10.3068 15.738 10.362 15.9002C10.4172 16.0624 10.4398 16.2338 10.4287 16.4048C10.4176 16.5757 10.3729 16.7428 10.2972 16.8965C10.2215 17.0502 10.1163 17.1874 9.9875 17.3004L8.53907 18.5708C8.30209 18.78 7.99672 18.8953 7.68058 18.8948ZM9.11572 15.6535C8.95686 15.6531 8.80333 15.7107 8.68404 15.8157L7.23691 17.086C7.14002 17.1735 7.071 17.2875 7.03843 17.414C7.00586 17.5404 7.01118 17.6735 7.05373 17.797C7.09629 17.9204 7.17419 18.0285 7.27774 18.108C7.3813 18.1874 7.50594 18.2347 7.63615 18.2439C7.72215 18.2498 7.80846 18.2385 7.89004 18.2106C7.97162 18.1828 8.04684 18.139 8.11129 18.0817L9.55842 16.8113C9.62317 16.7545 9.6761 16.6855 9.71418 16.6083C9.75225 16.531 9.77473 16.447 9.78034 16.361C9.78594 16.2751 9.77455 16.1888 9.74682 16.1073C9.7191 16.0257 9.67558 15.9504 9.61875 15.8857L9.60934 15.875C9.55274 15.8105 9.48394 15.7579 9.40691 15.7201C9.32987 15.6823 9.24612 15.6601 9.16048 15.6548C9.14546 15.6542 9.13043 15.6538 9.11539 15.6538L9.11572 15.6535Z" fill="black"/>
<path d="M6.04442 17.7042C6.01588 17.7042 5.98702 17.7042 5.95783 17.7016C5.78678 17.6909 5.61955 17.6464 5.4658 17.5707C5.31205 17.495 5.17482 17.3895 5.06204 17.2605L5.02669 17.2183C4.79873 16.9583 4.68334 16.6184 4.70591 16.2733C4.72847 15.9282 4.88713 15.6062 5.14702 15.3781L6.82474 13.9054C6.95346 13.7923 7.10318 13.7057 7.26537 13.6505C7.42755 13.5954 7.59902 13.5727 7.76997 13.5838C7.94092 13.5949 8.10801 13.6396 8.26169 13.7153C8.41536 13.791 8.55262 13.8963 8.66561 14.025L8.70226 14.0669C8.9303 14.3269 9.04574 14.6668 9.02318 15.0119C9.00061 15.357 8.84189 15.679 8.58193 15.9071L6.9042 17.3798C6.66691 17.5894 6.36103 17.7048 6.04442 17.7042ZM7.68323 14.23C7.52438 14.2296 7.37085 14.2873 7.25156 14.3922L5.57383 15.8649C5.44297 15.9797 5.36306 16.1418 5.35169 16.3155C5.34032 16.4892 5.3984 16.6603 5.51318 16.7912L5.54983 16.833C5.66468 16.9635 5.82664 17.0431 6.00013 17.0543C6.17362 17.0655 6.34445 17.0074 6.47512 16.8927L8.15285 15.4199C8.2176 15.3631 8.27053 15.2941 8.30861 15.2169C8.34668 15.1396 8.36916 15.0556 8.37477 14.9696C8.38037 14.8837 8.36898 14.7975 8.34126 14.7159C8.31353 14.6344 8.27001 14.5591 8.21318 14.4943L8.17718 14.4531C8.12054 14.3884 8.05162 14.3355 7.9744 14.2975C7.89719 14.2595 7.81322 14.2373 7.72734 14.2319C7.71267 14.2307 7.69795 14.23 7.68323 14.23Z" fill="black"/>
<path d="M4.63329 16.2608C4.60475 16.2608 4.57556 16.2608 4.54669 16.2579C4.28762 16.2415 4.0392 16.1488 3.83283 15.9913C3.62647 15.8338 3.47142 15.6187 3.38728 15.3731C3.30314 15.1276 3.29369 14.8625 3.36013 14.6116C3.42657 14.3607 3.5659 14.135 3.76053 13.9633L4.81102 13.0412C4.93973 12.9282 5.08945 12.8416 5.25164 12.7864C5.41383 12.7312 5.58529 12.7086 5.75624 12.7197C5.9272 12.7308 6.09428 12.7755 6.24796 12.8512C6.40164 12.9269 6.53889 13.0321 6.65188 13.1609L6.66323 13.1739C6.77629 13.3026 6.86288 13.4523 6.91805 13.6145C6.97322 13.7767 6.9959 13.9481 6.98479 14.1191C6.97367 14.29 6.92899 14.4571 6.85328 14.6108C6.77757 14.7645 6.67233 14.9017 6.54356 15.0147L5.49307 15.9368C5.25574 16.1463 4.94986 16.2616 4.63329 16.2608ZM5.67113 13.3655C5.51227 13.3651 5.35875 13.4228 5.23945 13.5277L4.18896 14.4498C4.12421 14.5066 4.07129 14.5756 4.03321 14.6528C3.99513 14.7301 3.97265 14.8141 3.96705 14.9001C3.96145 14.986 3.97284 15.0722 4.00056 15.1538C4.02829 15.2354 4.07181 15.3107 4.12864 15.3754C4.18502 15.4422 4.25409 15.4971 4.33186 15.5369C4.40962 15.5768 4.49453 15.6009 4.58165 15.6077C4.66878 15.6145 4.75639 15.604 4.83941 15.5767C4.92243 15.5494 4.99921 15.5059 5.06529 15.4487L6.11577 14.5266C6.18053 14.4698 6.23345 14.4008 6.27153 14.3235C6.3096 14.2463 6.33209 14.1623 6.33769 14.0763C6.34329 13.9904 6.3319 13.9041 6.30418 13.8226C6.27645 13.741 6.23293 13.6657 6.1761 13.601L6.16475 13.588C6.1081 13.5232 6.03914 13.4702 5.96187 13.4322C5.88459 13.3941 5.80054 13.3718 5.71458 13.3665L5.6695 13.3655H5.67113Z" fill="black"/>
<path d="M4.04798 14.4687C3.97779 14.4688 3.90946 14.446 3.85339 14.4038L2.74517 13.5606C2.71127 13.5348 2.68278 13.5025 2.66133 13.4657C2.63987 13.4289 2.62588 13.3883 2.62014 13.3461C2.61441 13.3039 2.61704 13.2609 2.62789 13.2198C2.63874 13.1786 2.6576 13.1399 2.68339 13.106C2.73547 13.0375 2.81262 12.9926 2.89786 12.981C2.94007 12.9752 2.983 12.9779 3.02419 12.9887C3.06538 12.9996 3.10403 13.0184 3.13793 13.0442L4.24615 13.8875C4.30074 13.9284 4.34103 13.9855 4.36127 14.0507C4.38152 14.1159 4.3807 14.1857 4.35893 14.2504C4.33716 14.3151 4.29554 14.3712 4.24001 14.4109C4.18447 14.4505 4.11784 14.4717 4.04961 14.4713L4.04798 14.4687ZM18.9805 14.828C18.9164 14.828 18.8537 14.809 18.8004 14.7733C18.7471 14.7377 18.7055 14.687 18.681 14.6278C18.6564 14.5685 18.65 14.5033 18.6625 14.4404C18.675 14.3775 18.7059 14.3197 18.7512 14.2744L20.571 12.454C20.6322 12.3949 20.7141 12.3622 20.7991 12.3629C20.8842 12.3637 20.9655 12.3978 21.0257 12.4579C21.0858 12.518 21.1199 12.5994 21.1206 12.6844C21.1214 12.7695 21.0887 12.8514 21.0296 12.9126L19.2098 14.7323C19.1798 14.7626 19.144 14.7866 19.1047 14.803C19.0654 14.8194 19.0232 14.8279 18.9805 14.828Z" fill="black"/>
<path d="M21.4608 14.1551C21.4054 14.1552 21.3508 14.141 21.3024 14.114C21.2539 14.087 21.2133 14.048 21.1842 14.0007L17.2242 7.55965C17.1824 7.49151 17.1672 7.41032 17.1815 7.33167C17.1959 7.25301 17.2388 7.18243 17.302 7.13349L21.2241 4.09586C21.2671 4.06252 21.3179 4.04055 21.3717 4.03199C21.4254 4.02343 21.4805 4.02854 21.5318 4.04686C21.5831 4.06518 21.6289 4.09612 21.6651 4.13682C21.7013 4.17753 21.7266 4.22668 21.7388 4.27976L23.6675 12.695C23.6835 12.7635 23.6769 12.8353 23.6485 12.8997C23.6201 12.964 23.5716 13.0174 23.5102 13.0518L21.6191 14.1146C21.5707 14.1414 21.5162 14.1554 21.4608 14.1551ZM17.9293 7.46754L21.5734 13.3946L22.9813 12.6032L21.2202 4.91932L17.9293 7.46754ZM2.53976 14.2702C2.48421 14.2702 2.4296 14.2559 2.38116 14.2287L0.490027 13.1675C0.428674 13.1332 0.380156 13.0798 0.351784 13.0154C0.323412 12.9511 0.316725 12.8793 0.33273 12.8108L2.26181 4.39651C2.27399 4.34344 2.29933 4.29428 2.33551 4.25358C2.37168 4.21288 2.41752 4.18194 2.4688 4.16362C2.52008 4.1453 2.57515 4.14018 2.62893 4.14875C2.68271 4.15731 2.73346 4.17928 2.77651 4.21262L6.69889 7.24992C6.76212 7.29887 6.80503 7.36944 6.8194 7.4481C6.83376 7.52675 6.81857 7.60794 6.77673 7.67608L2.81641 14.1172C2.78718 14.1642 2.74642 14.2029 2.698 14.2297C2.64957 14.2565 2.5951 14.2705 2.53976 14.2702ZM1.01932 12.7206L2.42722 13.5116L6.07132 7.5843L2.78041 5.03608L1.01932 12.7206Z" fill="black"/>
</svg>