<svg width="11" height="20" viewBox="0 0 11 20" fill="none" xmlns="http://www.w3.org/2000/svg">
<path d="M1.03059 19.9668C0.972011 19.9668 0.914216 19.9533 0.861632 19.9275C0.809047 19.9017 0.763068 19.8642 0.727212 19.8178C0.691356 19.7715 0.666574 19.7176 0.654763 19.6602C0.642953 19.6028 0.644426 19.5435 0.659072 19.4868L2.92995 10.7671H0.384512C0.32375 10.7672 0.263837 10.7529 0.209696 10.7253C0.155555 10.6977 0.108732 10.6577 0.0730748 10.6085C0.0374175 10.5593 0.0139439 10.5023 0.00458379 10.4423C-0.00477637 10.3822 0.000243512 10.3208 0.0192315 10.2631L3.27507 0.264C3.30037 0.187114 3.34931 0.120186 3.41491 0.0727747C3.48051 0.0253631 3.55941 -0.000107467 3.64035 3.40825e-07H10.3844C10.4501 -2.94717e-05 10.5148 0.0168375 10.5722 0.0489842C10.6296 0.0811309 10.6777 0.127479 10.7121 0.183587C10.7464 0.239695 10.7657 0.30368 10.7682 0.369409C10.7707 0.435138 10.7563 0.500408 10.7264 0.55896L6.67035 8.48376H10.1724C10.2458 8.48379 10.3176 8.50482 10.3793 8.54436C10.4411 8.5839 10.4902 8.64031 10.521 8.7069C10.5517 8.77349 10.5627 8.84749 10.5527 8.92015C10.5427 8.9928 10.5121 9.06107 10.4645 9.11688L1.32291 19.8319C1.28685 19.8742 1.24204 19.9082 1.19157 19.9315C1.1411 19.9548 1.08618 19.9668 1.03059 19.9668ZM0.913231 9.9984H3.42675C3.48533 9.99844 3.54313 10.0119 3.59571 10.0377C3.6483 10.0635 3.69428 10.101 3.73013 10.1474C3.76599 10.1937 3.79077 10.2476 3.80258 10.305C3.81439 10.3624 3.81292 10.4217 3.79827 10.4784L1.82355 18.0617L9.34011 9.25056H6.04323C5.97748 9.25055 5.91282 9.23365 5.85547 9.20149C5.79812 9.16932 5.74998 9.12297 5.71568 9.06687C5.68138 9.01077 5.66206 8.9468 5.65957 8.88109C5.65708 8.81538 5.67151 8.75014 5.70147 8.6916L9.75603 0.7668H3.92019L0.913231 9.9984Z" fill="black"/>
</svg>