<svg width="24" height="24" viewBox="0 0 24 24" fill="none" xmlns="http://www.w3.org/2000/svg">
<path d="M11.9995 1.12396C10.9058 1.12621 9.8576 1.56187 9.08452 2.33548C8.31143 3.1091 7.8765 4.1576 7.875 5.25129V9.00018H8.62478V5.25129C8.62385 4.80784 8.71043 4.36856 8.87957 3.95864C9.04871 3.54871 9.29709 3.17619 9.61045 2.86243C9.92382 2.54866 10.296 2.29982 10.7057 2.13016C11.1155 1.96051 11.5546 1.87337 11.9981 1.87374C12.4418 1.87299 12.8812 1.95986 13.2913 2.12935C13.7013 2.29884 14.0739 2.54762 14.3875 2.86142C14.7012 3.17522 14.9498 3.54787 15.1191 3.95798C15.2885 4.36809 15.3751 4.8076 15.3742 5.25129V9.00018H16.124V5.25129C16.1225 4.1576 15.6875 3.1091 14.9145 2.33548C14.1414 1.56187 13.0932 1.12621 11.9995 1.12396Z" fill="black"/>
<path d="M6.74993 8.62598C5.30424 8.62598 4.125 9.80521 4.125 11.2495V20.2497C4.125 21.6954 5.30424 22.8746 6.74993 22.8746H17.2497C18.6954 22.8746 19.876 21.6954 19.876 20.2497V11.2495C19.876 9.80379 18.6954 8.62598 17.2497 8.62598H6.74993ZM6.74993 9.37717H17.2497C17.4961 9.37643 17.7402 9.42436 17.968 9.51823C18.1959 9.61209 18.4029 9.75003 18.5773 9.92414C18.7516 10.0982 18.8899 10.3051 18.9841 10.5328C19.0783 10.7605 19.1266 11.0045 19.1262 11.2509V20.2511C19.1262 21.29 18.29 22.1262 17.2497 22.1262H6.74993C6.50341 22.1268 6.2592 22.0786 6.03135 21.9845C5.8035 21.8904 5.5965 21.7522 5.42224 21.5778C5.24799 21.4034 5.10992 21.1963 5.01597 20.9684C4.92201 20.7404 4.87403 20.4962 4.87478 20.2497V11.2495C4.87478 10.2106 5.7096 9.37575 6.74993 9.37575V9.37717Z" fill="black"/>
<path d="M12.0026 13.1249C10.9708 13.1249 10.1289 13.9697 10.1289 15.0015C10.1289 16.0319 10.9708 16.8752 12.0026 16.8752C13.0345 16.8752 13.8764 16.0319 13.8764 15.0015C13.8764 13.9697 13.0331 13.1249 12.0026 13.1249ZM12.0026 13.8761C12.1505 13.8756 12.297 13.9043 12.4338 13.9607C12.5705 14.0171 12.6947 14.0999 12.7992 14.2046C12.9037 14.3092 12.9864 14.4335 13.0426 14.5703C13.0988 14.7071 13.1274 14.8536 13.1266 15.0015C13.1275 15.1494 13.0991 15.296 13.043 15.4327C12.9868 15.5695 12.9041 15.6938 12.7995 15.7984C12.6949 15.9029 12.6122 15.9857 12.556 16.0418C12.4998 16.098 12.4704 16.1264 12.3225 16.1255C12.1747 16.1264 12.0281 16.098 11.8913 16.0418C11.7545 15.9857 11.6302 15.9029 11.5257 15.7984C11.4211 15.6938 11.3384 15.5695 11.2822 15.4327C11.2261 15.296 11.1976 15.1494 11.1986 15.0015C11.1976 14.8535 11.2261 14.7068 11.2822 14.5699C11.3383 14.4329 11.421 14.3084 11.5255 14.2037C11.6301 14.0989 11.7544 14.0159 11.8912 13.9594C12.028 13.9029 12.1746 13.8742 12.3225 13.8747L12.0026 13.8761Z" fill="black"/>
<path d="M11.6264 16.5024V18.3761C11.6264 18.4757 11.666 18.5713 11.7364 18.6417C11.8069 18.7121 11.9024 18.7517 12.002 18.7517C12.1016 18.7517 12.1972 18.7121 12.2676 18.6417C12.338 18.5713 12.3776 18.4757 12.3776 18.3761V16.5024H11.625H11.6264Z" fill="black"/>
</svg>